<?xml version="1.0" encoding="UTF-8" standalone="no"?><!DOCTYPE svg PUBLIC "-//W3C//DTD SVG 1.1//EN" "http://www.w3.org/Graphics/SVG/1.1/DTD/svg11.dtd"><svg width="100%" height="100%" viewBox="0 0 766 460" version="1.1" xmlns="http://www.w3.org/2000/svg" xmlns:xlink="http://www.w3.org/1999/xlink" xml:space="preserve" xmlns:serif="http://www.serif.com/" style="fill-rule:evenodd;clip-rule:evenodd;stroke-linejoin:round;stroke-miterlimit:1.41421;"><path d="M380.154,8.225c81.107,0 147.091,65.984 147.091,147.091c0,30.15 -8.972,58.922 -26,83.531l-61.409,-62.741l-18.169,18.866l-41.675,-91.838l-40.147,91.885l-18.053,-18.05l-62.894,61.637c-16.919,-24.556 -25.834,-53.247 -25.834,-83.29c0,-81.107 65.984,-147.091 147.09,-147.091m15.025,169.297l-15.059,16.234l-17.787,-16.606l-5.707,0l23.507,-53.803l24.584,54.175l-9.538,0Zm-137.34,73.631l63.897,-62.615l20.815,20.815l10.478,-23.981l5.897,0l21.194,20.012l18.463,-19.64l9.868,0l10.735,23.659l20.697,-21.497l62.287,63.638l2.869,-3.872c19.906,-26.878 30.431,-58.813 30.431,-92.356c0,-85.641 -69.675,-155.316 -155.316,-155.316c-85.637,0 -155.312,69.675 -155.312,155.316c0,33.397 10.441,65.218 30.191,92.031l2.806,3.806Z" style="fill:#fff;fill-rule:nonzero;"/><path d="M344.296,246.711l4.953,-4.956l-28.272,-28.272l-28.587,28.594l4.953,4.953l20.134,-20.135l0,16.844l-25.087,25.084l4.953,4.954l20.134,-20.132l0,32.944l7.004,0l0,-32.944l19.815,19.816l4.953,-4.953l-24.768,-24.769l0,-16.844l19.815,19.816Z" style="fill:#fff;fill-rule:nonzero;"/><path d="M376.651,298.688l7.006,0l0,-32.94l19.816,19.812l4.953,-4.953l-24.769,-24.769l0,-16.843l19.816,19.815l4.953,-4.953l-28.272,-28.272l-28.591,28.591l4.957,4.953l20.131,-20.134l0,16.843l-25.088,25.085l4.957,4.956l20.131,-20.131l0,32.94Z" style="fill:#fff;fill-rule:nonzero;"/><path d="M464.032,246.711l4.953,-4.956l-28.272,-28.272l-28.59,28.594l4.956,4.953l20.131,-20.135l0,16.844l-25.087,25.084l4.956,4.954l20.131,-20.132l0,32.944l7.007,0l0,-32.944l19.815,19.816l4.953,-4.953l-24.768,-24.769l0,-16.844l19.815,19.816Z" style="fill:#fff;fill-rule:nonzero;"/><path d="M45.468,365.327c0,10.906 -7.481,18.384 -18.559,18.384l-10.472,0l0,-37.122l10.472,0c11.078,0 18.559,7.653 18.559,18.559l0,0.179Zm-18.559,-30.966l-24.019,0l0,61.578l24.019,0c19.35,0 32.718,-13.462 32.718,-30.791l0,-0.175c0,-17.328 -13.368,-30.612 -32.718,-30.612" style="fill:#fff;fill-rule:nonzero;"/><path d="M87.68,370.164l8.181,-19.969l8.178,19.969l-16.359,0Zm2.112,-36.244l-26.39,62.019l13.809,0l5.631,-13.813l26.038,0l5.631,13.813l14.16,0l-26.388,-62.019l-12.491,0Z" style="fill:#fff;fill-rule:nonzero;"/><path d="M180.914,372.275l-28.853,-37.915l-12.49,0l0,61.578l13.368,0l0,-39.144l29.822,39.144l11.522,0l0,-61.578l-13.369,0l0,37.915Z" style="fill:#fff;fill-rule:nonzero;"/><rect x="211.071" y="334.361" width="13.547" height="61.578" style="fill:#fff;"/><path d="M287.863,346.415l0,-12.053l-46.444,0l0,61.578l46.885,0l0,-12.056l-33.428,0l0,-12.928l29.028,0l0,-12.05l-29.028,0l0,-12.491l32.987,0Z" style="fill:#fff;fill-rule:nonzero;"/><path d="M315.296,334.36l-13.544,0l0,61.578l44.244,0l0,-12.315l-30.7,0l0,-49.263Z" style="fill:#fff;fill-rule:nonzero;"/><path d="M441.336,360.49l-26.74,0l0,11.697l13.637,0l0,8.796c-3.434,2.463 -7.831,3.694 -12.756,3.694c-10.909,0 -18.65,-8.269 -18.65,-19.528l0,-0.175c0,-10.466 7.831,-19.175 17.681,-19.175c7.125,0 11.347,2.284 16.097,6.244l8.534,-10.291c-6.421,-5.453 -13.106,-8.447 -24.19,-8.447c-18.65,0 -32.281,14.341 -32.281,31.844l0,0.178c0,18.206 13.193,31.669 32.368,31.669c11.26,0 19.969,-4.403 26.3,-9.766l0,-26.74Z" style="fill:#fff;fill-rule:nonzero;"/><path d="M493.402,355.561c0,5.191 -3.781,8.706 -10.378,8.706l-13.725,0l0,-17.678l13.459,0c6.597,0 10.644,2.991 10.644,8.794l0,0.178Zm13.725,-0.703l0,-0.175c0,-5.806 -1.85,-10.647 -5.281,-14.075c-4.047,-4.047 -10.113,-6.247 -17.944,-6.247l-28.15,0l0,61.578l13.547,0l0,-19.706l10.644,0l13.197,19.706l15.831,0l-15.041,-21.994c7.832,-2.903 13.197,-9.147 13.197,-19.087" style="fill:#fff;fill-rule:nonzero;"/><path d="M569.306,365.327c0,10.556 -7.566,19.175 -18.472,19.175c-10.907,0 -18.65,-8.797 -18.65,-19.354l0,-0.175c0,-10.553 7.568,-19.175 18.472,-19.175c10.909,0 18.65,8.794 18.65,19.35l0,0.179Zm-18.472,-32.022c-19,0 -32.81,14.34 -32.81,31.843l0,0.179c0,17.506 13.635,31.668 32.632,31.668c19.003,0 32.812,-14.34 32.812,-31.847l0,-0.175c0,-17.503 -13.634,-31.668 -32.634,-31.668" style="fill:#fff;fill-rule:nonzero;"/><path d="M618.732,377.729l-16.097,-43.369l-14.956,0l24.893,62.019l11.963,0l24.894,-62.019l-14.603,0l-16.094,43.369Z" style="fill:#fff;fill-rule:nonzero;"/><path d="M673.786,370.954l29.028,0l0,-12.047l-29.028,0l0,-12.494l32.987,0l0,-12.053l-46.447,0l0,61.578l46.888,0l0,-12.053l-33.428,0l0,-12.931Z" style="fill:#fff;fill-rule:nonzero;"/><path d="M745.645,359.08c-10.643,-2.725 -13.284,-4.047 -13.284,-8.094l0,-0.175c0,-2.991 2.725,-5.366 7.916,-5.366c5.19,0 10.559,2.288 16.012,6.069l7.038,-10.203c-6.247,-5.013 -13.9,-7.825 -22.872,-7.825c-12.582,0 -21.553,7.387 -21.553,18.556l0,0.178c0,12.228 8.006,15.657 20.412,18.822c10.291,2.641 12.397,4.397 12.397,7.831l0,0.175c0,3.607 -3.341,5.807 -8.881,5.807c-7.038,0 -12.844,-2.907 -18.385,-7.478l-8.006,9.59c7.391,6.594 16.8,9.85 26.128,9.85c13.281,0 22.606,-6.859 22.606,-19.087l0,-0.178c0,-10.732 -7.037,-15.216 -19.528,-18.472" style="fill:#fff;fill-rule:nonzero;"/><path d="M20.831,435.798c0,3.65 -2.897,6.247 -7.54,6.247l-7.144,0l0,-12.591l7.144,0c4.593,0 7.54,2.147 7.54,6.247l0,0.097Zm-7.044,-11.941l-13.787,0l0,34.972l6.147,0l0,-11.241l6.94,0c7.694,0 13.991,-4.093 13.991,-11.94l0,-0.1c0,-7.041 -5.1,-11.691 -13.291,-11.691" style="fill:#fff;fill-rule:nonzero;"/><path d="M92.194,438.398l-16.688,0l0,-14.541l-6.147,0l0,34.972l6.147,0l0,-14.737l16.688,0l0,14.737l6.147,0l0,-34.972l-6.147,0l0,14.541Z" style="fill:#fff;fill-rule:nonzero;"/><path d="M171.899,441.443c0,6.797 -4.847,12.291 -11.79,12.291c-6.947,0 -11.894,-5.594 -11.894,-12.391l0,-0.096c0,-6.797 4.85,-12.344 11.794,-12.344c6.943,0 11.89,5.647 11.89,12.44l0,0.1Zm-11.79,-18.184c-10.741,0 -18.338,8.241 -18.338,18.084l0,0.1c0,9.841 7.497,17.988 18.238,17.988c10.743,0 18.337,-8.244 18.337,-18.088l0,-0.096c0,-9.844 -7.497,-17.988 -18.237,-17.988" style="fill:#fff;fill-rule:nonzero;"/><path d="M217.383,429.554l11.09,0l0,29.275l6.194,0l0,-29.275l11.094,0l0,-5.697l-28.378,0l0,5.697Z" style="fill:#fff;fill-rule:nonzero;"/><path d="M314.92,441.443c0,6.797 -4.847,12.291 -11.787,12.291c-6.947,0 -11.894,-5.594 -11.894,-12.391l0,-0.096c0,-6.797 4.847,-12.344 11.79,-12.344c6.947,0 11.891,5.647 11.891,12.44l0,0.1Zm-11.787,-18.184c-10.744,0 -18.341,8.241 -18.341,18.084l0,0.1c0,9.841 7.497,17.988 18.237,17.988c10.741,0 18.335,-8.244 18.335,-18.088l0,-0.096c0,-9.844 -7.491,-17.988 -18.231,-17.988" style="fill:#fff;fill-rule:nonzero;"/><path d="M381.088,444.642l8.941,0l0,6.547c-2.147,1.597 -5.144,2.647 -8.444,2.647c-7.143,0 -11.89,-5.297 -11.89,-12.494l0,-0.097c0,-6.694 4.897,-12.341 11.34,-12.341c4.447,0 7.097,1.45 9.794,3.747l3.897,-4.644c-3.597,-3.05 -7.341,-4.75 -13.441,-4.75c-10.54,0 -18.034,8.297 -18.034,18.085l0,0.103c0,10.191 7.197,17.984 18.137,17.984c6.194,0 11.141,-2.497 14.588,-5.447l0,-14.684l-14.888,0l0,5.344Z" style="fill:#fff;fill-rule:nonzero;"/><path d="M446.103,441.193l0,-11.74l8.944,0c4.547,0 7.247,2.047 7.247,5.8l0,0.097c0,3.547 -2.8,5.843 -7.197,5.843l-8.994,0Zm22.435,-6.19l0,-0.103c0,-3.047 -1.05,-5.647 -2.9,-7.544c-2.247,-2.2 -5.694,-3.5 -10.091,-3.5l-15.591,0l0,34.975l6.147,0l0,-12.191l7.694,0l8.594,12.191l7.293,0l-9.443,-13.241c4.847,-1.397 8.297,-4.847 8.297,-10.587" style="fill:#fff;fill-rule:nonzero;"/><path d="M521.213,444.941l5.994,-13.988l6.046,13.988l-12.04,0Zm3.247,-21.331l-15.388,35.218l6.297,0l3.594,-8.44l16.537,0l3.547,8.44l6.494,0l-15.388,-35.218l-5.693,0Z" style="fill:#fff;fill-rule:nonzero;"/><path d="M608.362,435.798c0,3.65 -2.897,6.247 -7.544,6.247l-7.144,0l0,-12.591l7.144,0c4.597,0 7.544,2.147 7.544,6.247l0,0.097Zm-7.047,-11.941l-13.788,0l0,34.972l6.147,0l0,-11.241l6.941,0c7.694,0 13.991,-4.093 13.991,-11.94l0,-0.1c0,-7.041 -5.094,-11.691 -13.291,-11.691" style="fill:#fff;fill-rule:nonzero;"/><path d="M679.724,438.398l-16.691,0l0,-14.541l-6.143,0l0,34.972l6.143,0l0,-14.737l16.691,0l0,14.737l6.144,0l0,-34.972l-6.144,0l0,14.541Z" style="fill:#fff;fill-rule:nonzero;"/><path d="M744.29,439.298l-9.743,-15.441l-7.294,0l13.89,21.185l0,13.787l6.194,0l0,-13.937l13.888,-21.035l-7.044,0l-9.891,15.441Z" style="fill:#fff;fill-rule:nonzero;"/></svg>